<svg xmlns="http://www.w3.org/2000/svg" version="1.1" xmlns:xlink="http://www.w3.org/1999/xlink" width="512" height="512" x="0" y="0" viewBox="0 0 512 512" style="enable-background:new 0 0 512 512" xml:space="preserve" class=""><g><path d="M504.396 210.617h-27.174a7.605 7.605 0 0 0-7.604 7.604v21.201h-12.365V218.22a7.605 7.605 0 0 0-7.604-7.604h-30.014a7.605 7.605 0 0 0-7.604 7.604v21.201h-12.365V218.22a7.605 7.605 0 0 0-7.604-7.604h-27.174a7.605 7.605 0 0 0-7.604 7.604v81.943h-20.587V184.589h18.595c2.495 0 4.92-1.105 6.373-3.133a7.612 7.612 0 0 0-.811-9.879l-97.251-96.108V59.888h62.735c2.256 0 4.468-.891 5.945-2.597a7.612 7.612 0 0 0 .558-9.286l-12.295-18.061 12.295-18.061a7.612 7.612 0 0 0-.558-9.286C330.806.891 328.594 0 326.338 0H256a7.605 7.605 0 0 0-7.604 7.604v67.865l-97.094 95.953c-1.775 1.754-2.723 4.246-2.332 6.711a7.611 7.611 0 0 0 7.521 6.455h18.811v43.589a7.605 7.605 0 0 0 15.208 0v-43.589h130.98v123.14l-.002.04v23.501H309.13v-23.501a7.605 7.605 0 0 0-7.604-7.604h-31.745a7.605 7.605 0 0 0-7.604 7.604v23.501h-12.359v-23.501a7.605 7.605 0 0 0-7.604-7.604H210.48a7.605 7.605 0 0 0-7.604 7.604v23.501h-12.369v-23.503l.002-.001v-44.101a7.605 7.605 0 0 0-15.208 0v36.499h-20.587V218.22a7.605 7.605 0 0 0-7.604-7.604h-27.174a7.605 7.605 0 0 0-7.604 7.604v21.201H99.969V218.22a7.605 7.605 0 0 0-7.604-7.604H62.35a7.605 7.605 0 0 0-7.604 7.604v21.201H42.381V218.22a7.605 7.605 0 0 0-7.604-7.604H7.604A7.605 7.605 0 0 0 0 218.22v57.609a7.605 7.605 0 0 0 7.604 7.604h17.849v220.964a7.605 7.605 0 0 0 7.604 7.604H147.11l.019-.001h217.74l.019.001h114.054a7.605 7.605 0 0 0 7.604-7.604V363.019a7.605 7.605 0 0 0-15.208 0v133.773h-98.843V307.767c0-.02-.003-.039-.003-.059v-24.275h98.846v44.1a7.605 7.605 0 0 0 15.208 0v-44.1h17.849a7.605 7.605 0 0 0 7.604-7.604V218.22a7.602 7.602 0 0 0-7.603-7.603zM263.604 15.208h48.576l-7.118 10.457a7.6 7.6 0 0 0-.001 8.558l7.118 10.457h-48.575V15.208zM139.506 496.792H40.661V283.433h98.845v213.359zm.001-228.567H15.208v-42.401h11.966v21.201a7.605 7.605 0 0 0 7.604 7.604H62.35a7.605 7.605 0 0 0 7.604-7.604v-21.201H84.76v21.201a7.605 7.605 0 0 0 7.604 7.604h27.573a7.605 7.605 0 0 0 7.604-7.604v-21.201h11.966v42.401zm43.399-98.844h-7.903L256 89.336l80.997 80.044H182.906zm65.49 326.952h-36.497v-66.912c0-21.723 15.792-39.815 36.497-43.431v110.343zm51.704.001h-36.496V385.991c20.704 3.615 36.496 21.708 36.496 43.431v66.912zm57.187.457H315.31v-67.37c0-32.702-26.605-59.308-59.308-59.308-32.702 0-59.308 26.606-59.308 59.308v67.37h-41.973v-181.42H175.3v23.501a7.605 7.605 0 0 0 7.604 7.604h27.577a7.605 7.605 0 0 0 7.604-7.604v-23.501h16.526v23.501a7.605 7.605 0 0 0 7.604 7.604h27.567c4.2 0 7.604-3.405 7.604-7.604v-23.501h16.537v23.501a7.604 7.604 0 0 0 7.604 7.604h27.566c4.2 0 7.604-3.405 7.604-7.604v-23.501h20.59v181.42zm139.505-228.566H372.494v-42.401h11.966v21.201a7.604 7.604 0 0 0 7.604 7.604h27.573c4.2 0 7.604-3.405 7.604-7.604v-21.201h14.806v21.201a7.604 7.604 0 0 0 7.604 7.604h27.573c4.2 0 7.604-3.405 7.604-7.604v-21.201h11.965v42.401z" fill="#000000" opacity="1" data-original="#000000"></path><path d="M87.802 306.243c-15.932 0-28.894 12.962-28.894 28.894v45.622a7.605 7.605 0 0 0 7.604 7.604h42.58a7.605 7.605 0 0 0 7.604-7.604v-45.622c0-15.932-12.962-28.894-28.894-28.894zm13.687 66.912H74.116v-38.018c0-7.546 6.14-13.686 13.686-13.686s13.686 6.14 13.686 13.686v38.018zM448.212 335.137c0-15.932-12.961-28.894-28.894-28.894-15.933 0-28.894 12.962-28.894 28.894v45.622a7.604 7.604 0 0 0 7.604 7.604h42.58c4.2 0 7.604-3.405 7.604-7.604v-45.622zm-15.208 38.018h-27.372v-38.018c0-7.546 6.14-13.686 13.686-13.686s13.686 6.14 13.686 13.686v38.018zM256.001 197.259c-15.932 0-28.894 12.962-28.894 28.894v45.622h-.001a7.605 7.605 0 0 0 7.604 7.604h42.581c4.2 0 7.604-3.405 7.604-7.604v-45.622c0-15.932-12.961-28.894-28.894-28.894zm13.686 66.912h-27.372v-38.018h-.001c0-7.546 6.14-13.686 13.686-13.686s13.687 6.14 13.687 13.686v38.018zM80.199 415.735h-21.29a7.605 7.605 0 0 0 0 15.208h21.29a7.605 7.605 0 0 0 0-15.208zM104.53 440.067H83.241a7.605 7.605 0 0 0 0 15.208h21.29a7.605 7.605 0 0 0-.001-15.208zM414.757 415.735h-21.29a7.604 7.604 0 0 0 0 15.208h21.29a7.604 7.604 0 0 0 0-15.208zM439.087 440.067h-21.29a7.604 7.604 0 0 0 0 15.208h21.29a7.604 7.604 0 0 0 0-15.208zM340.241 370.113h-21.29a7.604 7.604 0 0 0 0 15.208h21.29a7.604 7.604 0 0 0 0-15.208zM224.179 190.669h-21.29a7.605 7.605 0 0 0 0 15.208h21.29a7.605 7.605 0 0 0 0-15.208zM191.211 388.362h-21.29a7.605 7.605 0 0 0 0 15.208h21.29a7.604 7.604 0 0 0 0-15.208z" fill="#000000" opacity="1" data-original="#000000"></path></g></svg>