<svg xmlns="http://www.w3.org/2000/svg" version="1.1" xmlns:xlink="http://www.w3.org/1999/xlink" width="512" height="512" x="0" y="0" viewBox="0 0 74 74" style="enable-background:new 0 0 512 512" xml:space="preserve" class=""><g><path d="M37 72a1 1 0 0 1-.422-.093C19.185 63.811 8.8 49.853 8.8 34.57V13.46a1 1 0 0 1 .327-.74.992.992 0 0 1 .769-.256C20.887 13.518 29.508 10.209 36.24 2.35A1 1 0 0 1 37 2a1 1 0 0 1 .76.352c6.586 7.733 15.213 11.048 26.357 10.111a1 1 0 0 1 1.083 1V34.57a29.339 29.339 0 0 1-.144 3 33.031 33.031 0 0 1-1.475 7.2 31.017 31.017 0 0 1-1.132 3.056 38.379 38.379 0 0 1-4.011 7.183c-.2.3-.434.62-.669.939a53.361 53.361 0 0 1-20.347 15.959A1 1 0 0 1 37 72zM10.8 14.547V34.57c0 14.362 9.785 27.539 26.2 35.33a51.137 51.137 0 0 0 19.149-15.119c.226-.3.44-.592.635-.889a36.4 36.4 0 0 0 3.824-6.841 29.481 29.481 0 0 0 1.067-2.877 31.048 31.048 0 0 0 1.389-6.793 26.935 26.935 0 0 0 .136-2.811V14.535C52.3 15.2 43.707 11.91 37 4.513c-6.842 7.516-15.433 10.806-26.2 10.034z" fill="#000000" opacity="1" data-original="#000000" class=""></path><path d="M58.031 38.47a.884.884 0 0 1-.125-.008 1 1 0 0 1-.868-1.116 22.223 22.223 0 0 0 .162-2.776 1 1 0 0 1 2-.01v.01a24.073 24.073 0 0 1-.178 3.024 1 1 0 0 1-.991.876zM54.929 48.44a1 1 0 0 1-.884-1.466 27.324 27.324 0 0 0 1.312-2.864 1 1 0 1 1 1.866.72 29.149 29.149 0 0 1-1.409 3.076 1 1 0 0 1-.885.534z" fill="#000000" opacity="1" data-original="#000000" class=""></path><path d="M37 65.31a1.01 1.01 0 0 1-.466-.115C22.925 58.028 14.8 46.579 14.8 34.57V19.61a1 1 0 0 1 .952-1 33.729 33.729 0 0 0 20.6-7.936 1 1 0 0 1 1.288 0 34.181 34.181 0 0 0 20.611 7.878 1 1 0 0 1 .946 1v8.01a1 1 0 1 1-2 0v-7.075A36.02 36.02 0 0 1 37 12.734a35.561 35.561 0 0 1-20.2 7.818V34.57c0 11.285 7.354 21.688 20.2 28.607a45.135 45.135 0 0 0 12.247-9.406 1 1 0 1 1 1.486 1.338 47.372 47.372 0 0 1-13.267 10.086 1.01 1.01 0 0 1-.466.115z" fill="#000000" opacity="1" data-original="#000000" class=""></path></g></svg>