<svg xmlns="http://www.w3.org/2000/svg" version="1.1" xmlns:xlink="http://www.w3.org/1999/xlink" width="582" height="582" x="0" y="0" viewBox="0 0 128 128" style="enable-background:new 0 0 512 512" xml:space="preserve"><g><path d="M60.4 75.3a6.7 6.7 0 1 0 0 13.4 6.7 6.7 0 0 0 0-13.4zm0 9.8c-1.8 0-3.2-1.4-3.2-3.2s1.4-3.2 3.2-3.2 3.2 1.4 3.2 3.2c0 1.8-1.4 3.2-3.2 3.2z" fill="#000000" opacity="1" data-original="#000000"></path><path d="M101.5 93.6H70.1c4.3-3.6 6.3-9.3 5.2-14.8l26.9-11.9c.8-.4 1.2-1.3.9-2.2L96 44.2c-.3-.9-1.2-1.3-2.1-1.1L45 55.7h-.2c-6.8 2.4-11.3 8.8-11.2 16h-2.1c-1.7 0-3.1-1.4-3.1-3.1V66c0-1-.8-1.8-1.8-1.8s-1.8.8-1.8 1.8v2.6c0 3.7 3 6.6 6.6 6.6H34c.1.6.3 1.2.5 1.8 1.8 5.3 6.2 9.3 11.5 10.7.1 0 .3.1.4.1 1 2.2 2.4 4.2 4.3 5.8H26.5c-1 0-1.8.8-1.8 1.8s.8 1.8 1.8 1.8h74.9c1 0 1.8-.8 1.8-1.8s-.8-1.8-1.7-1.8zm-2.2-29.2L74.1 75.5c-3.5-7.6-12.5-10.8-20.1-7.3-.9.4-1.7.9-2.5 1.5l-3.8-11.1 45.5-11.7zM37.8 75.9c-2.2-6.3.6-13.2 6.6-16.2l4.4 12.6c-2.7 3.2-3.9 7.4-3.3 11.6-3.7-1.4-6.5-4.3-7.7-8zm10.9 6c0-6.4 5.2-11.7 11.7-11.7 6.4 0 11.7 5.2 11.7 11.7 0 6.4-5.2 11.7-11.7 11.7-6.4 0-11.7-5.2-11.7-11.7z" fill="#000000" opacity="1" data-original="#000000"></path></g></svg>