<svg xmlns="http://www.w3.org/2000/svg" version="1.1" xmlns:xlink="http://www.w3.org/1999/xlink" width="512" height="512" x="0" y="0" viewBox="0 0 80 80" style="enable-background:new 0 0 512 512" xml:space="preserve" class=""><g><path d="M77.35 76.16h-2.36a.5.5 0 1 1 0-1h2.36a.5.5 0 0 1 0 1zM53.32 12.95a.489.489 0 0 1-.14.54.124.124 0 0 1-.03.02 7.169 7.169 0 0 1-4.35 1.45 8.382 8.382 0 0 1-4.24-1.22 7.149 7.149 0 0 0-4.35-1.1v27.33h11.08v35.69a1.386 1.386 0 0 0 .09.5h-4.53V64.99a6.624 6.624 0 1 0-13.24 0v11.17H29a1.386 1.386 0 0 0 .09-.5V39.97h10.12V4.39a.482.482 0 0 1 .62-.48 8.129 8.129 0 0 1 5.23 1.2 6.556 6.556 0 0 0 7.42-.09l.01-.01q.015-.03.03-.03a.462.462 0 0 1 .15-.09.508.508 0 0 1 .17-.03h.01a.688.688 0 0 1 .13.02c.04.02.08.04.13.06.01 0 .01 0 .02.01a.6.6 0 0 1 .08.08.19.19 0 0 1 .07.11.091.091 0 0 1 .03.07.4.4 0 0 1 .03.15.34.34 0 0 1-.02.14.355.355 0 0 1-.04.09c-.01.02-.01.03-.02.04l-2.74 4.25 2.7 2.9.01.01c.01.01.01.02.02.03a.539.539 0 0 1 .07.13z" fill="#000000" opacity="1" data-original="#000000" class=""></path><path d="M78 20.57v11.88a.5.5 0 0 1-.5.5H49.52a.5.5 0 0 1-.5-.5V20.57a.5.5 0 0 1 .5-.5h5.72a.5.5 0 0 1 .5.5v4.73h4.31v-4.73a.5.5 0 0 1 .5-.5h5.72a.5.5 0 0 1 .5.5v4.73h4.51v-4.73a.5.5 0 0 1 .5-.5h5.72a.5.5 0 0 1 .5.5zM30.98 20.57v11.88a.5.5 0 0 1-.5.5H2.5a.5.5 0 0 1-.5-.5V20.57a.5.5 0 0 1 .5-.5h5.72a.5.5 0 0 1 .5.5v5.15h4.31v-5.15a.5.5 0 0 1 .5-.5h5.72a.5.5 0 0 1 .5.5v5.15h4.51v-5.15a.5.5 0 0 1 .5-.5h5.72a.5.5 0 0 1 .5.5zM53.21 5.02v.01a.6.6 0 0 0-.08-.08.5.5 0 0 1 .08.07zM67.12 46.781a3.7 3.7 0 0 0-7.4 0v5.771h7.4z" fill="#000000" opacity="1" data-original="#000000" class=""></path><path d="M52.29 33.95v41.71a.5.5 0 0 0 .5.5h22.2a.5.5 0 0 0 .5-.5V33.95zm16.78 19.6H57.39a.5.5 0 0 1-.5-.5.508.508 0 0 1 .5-.5h1.33v-5.77a4.7 4.7 0 0 1 9.4 0v5.77h.95a.5.5 0 0 1 .5.5.5.5 0 0 1-.5.5zM19.9 46.781a3.7 3.7 0 0 0-7.4 0v5.771h7.4z" fill="#000000" opacity="1" data-original="#000000" class=""></path><path d="M4.88 33.95v41.21H3.03a.5.5 0 0 0 0 1h24.56a.5.5 0 0 0 .5-.5V33.95zm16.97 19.6H10.17a.5.5 0 0 1-.5-.5.508.508 0 0 1 .5-.5h1.33v-5.77a4.7 4.7 0 0 1 9.4 0v5.77h.95a.5.5 0 0 1 .5.5.5.5 0 0 1-.5.5z" fill="#000000" opacity="1" data-original="#000000" class=""></path></g></svg>